<svg xmlns="http://www.w3.org/2000/svg" style="display: none;">
    <symbol id="menu-icon" viewBox="0 0 448 512">
        <path d="M0 96C0 78.3 14.3 64 32 64l384 0c17.7 0 32 14.3 32 32s-14.3 32-32 32L32 128C14.3 128 0 113.7 0 96zM0 256c0-17.7 14.3-32 32-32l384 0c17.7 0 32 14.3 32 32s-14.3 32-32 32L32 288c-17.7 0-32-14.3-32-32zM448 416c0 17.7-14.3 32-32 32L32 448c-17.7 0-32-14.3-32-32s14.3-32 32-32l384 0c17.7 0 32 14.3 32 32z"/>
    </symbol>

    <symbol id="menu-close-icon" viewBox="0 0 384 512">
        <path d="M342.6 150.6c12.5-12.5 12.5-32.8 0-45.3s-32.8-12.5-45.3 0L192 210.7 86.6 105.4c-12.5-12.5-32.8-12.5-45.3 0s-12.5 32.8 0 45.3L146.7 256 41.4 361.4c-12.5 12.5-12.5 32.8 0 45.3s32.8 12.5 45.3 0L192 301.3 297.4 406.6c12.5 12.5 32.8 12.5 45.3 0s12.5-32.8 0-45.3L237.3 256 342.6 150.6z"/>
    </symbol>

    <symbol id="phone-icon" viewBox="0 0 512 512">
        <path d="M164.9 24.6c-7.7-18.6-28-28.5-47.4-23.2l-88 24C12.1 30.2 0 46 0 64C0 311.4 200.6 512 448 512c18 0 33.8-12.1 38.6-29.5l24-88c5.3-19.4-4.6-39.7-23.2-47.4l-96-40c-16.3-6.8-35.2-2.1-46.3 11.6L304.7 368C234.3 334.7 177.3 277.7 144 207.3L193.3 167c13.7-11.2 18.4-30 11.6-46.3l-40-96z"/>
    </symbol>

    <symbol id="arrow-left-icon" viewBox="0 0 512 512">
        <path d="M9.4 233.4c-12.5 12.5-12.5 32.8 0 45.3l160 160c12.5 12.5 32.8 12.5 45.3 0s12.5-32.8 0-45.3L109.2 288 416 288c17.7 0 32-14.3 32-32s-14.3-32-32-32l-306.7 0L214.6 118.6c12.5-12.5 12.5-32.8 0-45.3s-32.8-12.5-45.3 0l-160 160z"/>
    </symbol>

    <symbol id="arrow-right-icon" viewBox="0 0 512 512">
        <path d="M438.6 278.6c12.5-12.5 12.5-32.8 0-45.3l-160-160c-12.5-12.5-32.8-12.5-45.3 0s-12.5 32.8 0 45.3L338.8 224 32 224c-17.7 0-32 14.3-32 32s14.3 32 32 32l306.7 0L233.4 393.4c-12.5 12.5-12.5 32.8 0 45.3s32.8 12.5 45.3 0l160-160z"/>
    </symbol>

    <symbol id="shop-icon" viewBox="0 0 640 512">
        <path d="M36.8 192l566.3 0c20.3 0 36.8-16.5 36.8-36.8c0-7.3-2.2-14.4-6.2-20.4L558.2 21.4C549.3 8 534.4 0 518.3 0L121.7 0c-16 0-31 8-39.9 21.4L6.2 134.7c-4 6.1-6.2 13.2-6.2 20.4C0 175.5 16.5 192 36.8 192zM64 224l0 160 0 80c0 26.5 21.5 48 48 48l224 0c26.5 0 48-21.5 48-48l0-80 0-160-64 0 0 160-192 0 0-160-64 0zm448 0l0 256c0 17.7 14.3 32 32 32s32-14.3 32-32l0-256-64 0z"/>
    </symbol>

    <symbol id="key-icon" viewBox="0 0 512 512">
        <path d="M336 352c97.2 0 176-78.8 176-176S433.2 0 336 0S160 78.8 160 176c0 18.7 2.9 36.8 8.3 53.7L7 391c-4.5 4.5-7 10.6-7 17l0 80c0 13.3 10.7 24 24 24l80 0c13.3 0 24-10.7 24-24l0-40 40 0c13.3 0 24-10.7 24-24l0-40 40 0c6.4 0 12.5-2.5 17-7l33.3-33.3c16.9 5.4 35 8.3 53.7 8.3zM376 96a40 40 0 1 1 0 80 40 40 0 1 1 0-80z"/>
    </symbol>

    <symbol id="lock-icon" viewBox="0 0 448 512">
        <path d="M144 144l0 48 160 0 0-48c0-44.2-35.8-80-80-80s-80 35.8-80 80zM80 192l0-48C80 64.5 144.5 0 224 0s144 64.5 144 144l0 48 16 0c35.3 0 64 28.7 64 64l0 192c0 35.3-28.7 64-64 64L64 512c-35.3 0-64-28.7-64-64L0 256c0-35.3 28.7-64 64-64l16 0z"/>
    </symbol>

    <symbol id="shoe-icon" viewBox="0 0 640 512">
        <path d="M416 0C352.3 0 256 32 256 32l0 128c48 0 76 16 104 32s56 32 104 32c56.4 0 176-16 176-96S512 0 416 0zM128 96c0 35.3 28.7 64 64 64l32 0 0-128-32 0c-35.3 0-64 28.7-64 64zM288 512c96 0 224-48 224-128s-119.6-96-176-96c-48 0-76 16-104 32s-56 32-104 32l0 128s96.3 32 160 32zM0 416c0 35.3 28.7 64 64 64l32 0 0-128-32 0c-35.3 0-64 28.7-64 64z"/>
    </symbol>

    <symbol id="happy-icon" viewBox="0 0 512 512">
        <path d="M256 512A256 256 0 1 0 256 0a256 256 0 1 0 0 512zM164.1 325.5C182 346.2 212.6 368 256 368s74-21.8 91.9-42.5c5.8-6.7 15.9-7.4 22.6-1.6s7.4 15.9 1.6 22.6C349.8 372.1 311.1 400 256 400s-93.8-27.9-116.1-53.5c-5.8-6.7-5.1-16.8 1.6-22.6s16.8-5.1 22.6 1.6zM144.4 208a32 32 0 1 1 64 0 32 32 0 1 1 -64 0zm192-32a32 32 0 1 1 0 64 32 32 0 1 1 0-64z"/>
    </symbol>

    <symbol id="map-icon" viewBox="0 0 576 512">
        <path d="M408 120c0 54.6-73.1 151.9-105.2 192c-7.7 9.6-22 9.6-29.6 0C241.1 271.9 168 174.6 168 120C168 53.7 221.7 0 288 0s120 53.7 120 120zm8 80.4c3.5-6.9 6.7-13.8 9.6-20.6c.5-1.2 1-2.5 1.5-3.7l116-46.4C558.9 123.4 576 135 576 152l0 270.8c0 9.8-6 18.6-15.1 22.3L416 503l0-302.6zM137.6 138.3c2.4 14.1 7.2 28.3 12.8 41.5c2.9 6.8 6.1 13.7 9.6 20.6l0 251.4L32.9 502.7C17.1 509 0 497.4 0 480.4L0 209.6c0-9.8 6-18.6 15.1-22.3l122.6-49zM327.8 332c13.9-17.4 35.7-45.7 56.2-77l0 249.3L192 449.4 192 255c20.5 31.3 42.3 59.6 56.2 77c20.5 25.6 59.1 25.6 79.6 0zM288 152a40 40 0 1 0 0-80 40 40 0 1 0 0 80z"/>
    </symbol>

    <symbol id="email-icon" viewBox="0 0 512 512">
        <path d="M48 64C21.5 64 0 85.5 0 112c0 15.1 7.1 29.3 19.2 38.4L236.8 313.6c11.4 8.5 27 8.5 38.4 0L492.8 150.4c12.1-9.1 19.2-23.3 19.2-38.4c0-26.5-21.5-48-48-48L48 64zM0 176L0 384c0 35.3 28.7 64 64 64l384 0c35.3 0 64-28.7 64-64l0-208L294.4 339.2c-22.8 17.1-54 17.1-76.8 0L0 176z"/>
    </symbol>

    <symbol id="FSWeb-icon" viewBox="0 0 355 101">
        <rect x="20.1606" y="22.7273" width="96.1818" height="63.8182" fill="url(#paint0_linear_206_10)"/>
        <rect x="9.43311" y="88.7273" width="116.727" height="8.18182" fill="#5F4FBA"/>
        <path d="M25.5252 18.2637C21.6949 18.7243 18.7131 20.8819 17.0889 24.3486L16.3131 25.9728L16.1919 55.6698L16.0707 85.3668L11.6586 85.488L7.22222 85.6092L6.56767 86.288C5.96161 86.894 5.88889 87.1365 5.81616 88.9546C5.64646 92.8092 6.59192 95.5486 8.84646 97.8031C10.3737 99.3304 12.6283 100.47 14.7859 100.761C16.8222 101.076 118.834 101.076 120.871 100.761C123.028 100.47 125.283 99.3304 126.81 97.8031C129.065 95.5486 130.01 92.8092 129.84 88.9546C129.768 87.1365 129.695 86.894 129.089 86.288L128.434 85.6092L123.998 85.488L119.586 85.3668L119.465 55.6698L119.343 25.9728L118.568 24.3486C117.283 21.6092 115.077 19.6456 112.24 18.6274C111.198 18.2637 107.659 18.2152 68.6768 18.191C45.3556 18.1668 25.9374 18.191 25.5252 18.2637ZM111.343 23.888C112.58 24.4456 113.792 25.8031 114.107 26.991C114.277 27.6213 114.374 37.3668 114.374 56.688V85.488H67.8283H21.2828V56.688C21.2828 37.3668 21.3798 27.6213 21.5495 26.991C21.8646 25.8031 23.0768 24.4456 24.3131 23.888C25.2343 23.4516 27.198 23.4274 67.8283 23.4274C108.459 23.4274 110.422 23.4516 111.343 23.888ZM54.9798 91.6698C55.5859 92.2759 56.4343 92.8819 56.9192 93.0031C58.0343 93.3183 77.6222 93.3183 78.7374 93.0031C79.2222 92.8819 80.0707 92.2759 80.6768 91.6698L81.7434 90.5789H103.271H124.774L124.628 91.3546C124.41 92.688 123.513 94.0213 122.422 94.8213L121.356 95.5486H67.8283H14.301L13.2343 94.8213C12.1434 94.0213 11.2465 92.688 11.0283 91.3546L10.8828 90.5789H32.3859H53.9131L54.9798 91.6698Z" fill="#412CAB"/>
        <circle cx="66.9781" cy="24.0909" r="16.5909" fill="#5F4FBA" stroke="#412CAB" stroke-width="15"/>
        <path d="M73.9754 8.36516C73.8577 8.32716 73.6705 8.30875 73.5644 8.32385C73.3726 8.35021 73.3561 8.36632 63.889 17.622C54.838 26.471 54.4013 26.906 54.342 27.1009C54.2235 27.4907 54.4026 27.8716 54.7956 28.0676C54.913 28.13 56.6819 28.0685 61.0925 27.8657C64.4638 27.7041 67.248 27.5685 67.2766 27.5647C67.3092 27.557 69.4439 29.3778 72.0222 31.6111C75.9117 34.9795 76.735 35.6733 76.8975 35.7159C77.1209 35.7795 77.5172 35.6821 77.6696 35.5331C77.9786 35.231 78.0303 35.7042 76.2326 22.0719C75.2946 14.9396 74.5097 9.03529 74.4943 8.95363C74.4443 8.69639 74.219 8.44124 73.9754 8.36516Z" fill="white"/>
        <path d="M18.9387 52.3638C-52.9886 107.127 197.03 39.3638 125.757 35.3638C212.302 40.2209 -74.4252 125.273 18.9387 39.3638V52.3638Z" fill="#412CAB"/>
        <path d="M167.716 31.3184V76.8184H156.747V31.3184H167.716ZM185.403 50.2559V58.6934H164.591V50.2559H185.403ZM187.185 31.3184V39.7871H164.591V31.3184H187.185ZM215.185 64.7246C215.185 64.0163 215.08 63.3809 214.872 62.8184C214.664 62.235 214.278 61.6934 213.716 61.1934C213.153 60.6934 212.341 60.1934 211.278 59.6934C210.237 59.1725 208.862 58.6309 207.153 58.0684C205.153 57.4017 203.226 56.6517 201.372 55.8184C199.518 54.9642 197.862 53.9746 196.403 52.8496C194.945 51.7038 193.789 50.3704 192.935 48.8496C192.08 47.3079 191.653 45.5163 191.653 43.4746C191.653 41.5163 192.091 39.7559 192.966 38.1934C193.841 36.61 195.06 35.2663 196.622 34.1621C198.205 33.0371 200.06 32.1829 202.185 31.5996C204.31 30.9954 206.632 30.6934 209.153 30.6934C212.487 30.6934 215.424 31.2767 217.966 32.4434C220.528 33.5892 222.528 35.2246 223.966 37.3496C225.424 39.4538 226.153 41.9434 226.153 44.8184H215.247C215.247 43.6725 215.007 42.6621 214.528 41.7871C214.07 40.9121 213.372 40.2246 212.435 39.7246C211.497 39.2246 210.32 38.9746 208.903 38.9746C207.528 38.9746 206.372 39.1829 205.435 39.5996C204.497 40.0163 203.789 40.5788 203.31 41.2871C202.83 41.9746 202.591 42.735 202.591 43.5684C202.591 44.2559 202.778 44.8809 203.153 45.4434C203.549 45.985 204.101 46.4954 204.81 46.9746C205.539 47.4538 206.414 47.9121 207.435 48.3496C208.476 48.7871 209.643 49.2142 210.935 49.6309C213.351 50.4017 215.497 51.2663 217.372 52.2246C219.268 53.1621 220.862 54.235 222.153 55.4434C223.466 56.6309 224.455 57.985 225.122 59.5059C225.81 61.0267 226.153 62.7454 226.153 64.6621C226.153 66.7038 225.757 68.5163 224.966 70.0996C224.174 71.6829 223.039 73.0267 221.56 74.1309C220.08 75.2142 218.31 76.0371 216.247 76.5996C214.185 77.1621 211.882 77.4434 209.341 77.4434C207.007 77.4434 204.705 77.1517 202.435 76.5684C200.185 75.9642 198.143 75.0475 196.31 73.8184C194.476 72.5684 193.007 70.9746 191.903 69.0371C190.82 67.0788 190.278 64.7559 190.278 62.0684H201.278C201.278 63.4017 201.455 64.5267 201.81 65.4434C202.164 66.36 202.685 67.0996 203.372 67.6621C204.06 68.2038 204.903 68.5996 205.903 68.8496C206.903 69.0788 208.049 69.1934 209.341 69.1934C210.737 69.1934 211.862 68.9954 212.716 68.5996C213.57 68.1829 214.195 67.6413 214.591 66.9746C214.987 66.2871 215.185 65.5371 215.185 64.7246ZM242.31 72.6934L251.372 31.3184H256.778L259.716 34.8496L250.06 76.8184H244.091L242.31 72.6934ZM239.903 31.3184L247.56 73.0059L245.591 76.8184H238.685L229.028 31.3184H239.903ZM264.685 72.7871L272.278 31.3184H283.122L273.466 76.8184H266.591L264.685 72.7871ZM260.685 31.3184L269.966 72.9434L268.091 76.8184H262.122L252.247 34.7871L255.31 31.3184H260.685ZM302.31 77.4434C299.56 77.4434 297.101 77.0163 294.935 76.1621C292.768 75.2871 290.935 74.0892 289.435 72.5684C287.955 71.0475 286.82 69.2975 286.028 67.3184C285.257 65.3392 284.872 63.2454 284.872 61.0371V59.8496C284.872 57.3704 285.216 55.0788 285.903 52.9746C286.591 50.8496 287.612 48.9954 288.966 47.4121C290.32 45.8288 292.018 44.5996 294.06 43.7246C296.101 42.8288 298.476 42.3809 301.185 42.3809C303.58 42.3809 305.726 42.7663 307.622 43.5371C309.518 44.3079 311.122 45.4121 312.435 46.8496C313.768 48.2871 314.778 50.0267 315.466 52.0684C316.174 54.11 316.528 56.4017 316.528 58.9434V63.2246H288.903V56.6309H306.247V55.8184C306.268 54.6934 306.07 53.735 305.653 52.9434C305.257 52.1517 304.674 51.5475 303.903 51.1309C303.132 50.7142 302.195 50.5059 301.091 50.5059C299.945 50.5059 298.997 50.7559 298.247 51.2559C297.518 51.7559 296.945 52.4434 296.528 53.3184C296.132 54.1725 295.851 55.1621 295.685 56.2871C295.518 57.4121 295.435 58.5996 295.435 59.8496V61.0371C295.435 62.2871 295.601 63.4225 295.935 64.4434C296.289 65.4642 296.789 66.3392 297.435 67.0684C298.101 67.7767 298.893 68.3288 299.81 68.7246C300.747 69.1204 301.81 69.3184 302.997 69.3184C304.435 69.3184 305.851 69.0475 307.247 68.5059C308.643 67.9642 309.841 67.0684 310.841 65.8184L315.622 71.5059C314.935 72.485 313.955 73.4329 312.685 74.3496C311.435 75.2663 309.935 76.0163 308.185 76.5996C306.435 77.1621 304.476 77.4434 302.31 77.4434ZM320.903 28.8184H331.435V68.5059L330.341 76.8184H320.903V28.8184ZM352.185 59.5371V60.1934C352.185 62.7559 351.924 65.0892 351.403 67.1934C350.882 69.2975 350.08 71.1204 348.997 72.6621C347.914 74.1829 346.549 75.36 344.903 76.1934C343.257 77.0267 341.31 77.4434 339.06 77.4434C337.018 77.4434 335.268 77.0059 333.81 76.1309C332.351 75.235 331.132 74.0059 330.153 72.4434C329.174 70.86 328.382 69.0371 327.778 66.9746C327.174 64.8913 326.695 62.6621 326.341 60.2871V59.5059C326.695 57.1517 327.174 54.9434 327.778 52.8809C328.382 50.7975 329.174 48.9746 330.153 47.4121C331.132 45.8288 332.341 44.5996 333.778 43.7246C335.237 42.8288 336.976 42.3809 338.997 42.3809C341.268 42.3809 343.226 42.8079 344.872 43.6621C346.539 44.5163 347.914 45.7142 348.997 47.2559C350.08 48.7975 350.882 50.61 351.403 52.6934C351.924 54.7767 352.185 57.0579 352.185 59.5371ZM341.653 60.1934V59.5371C341.653 58.3079 341.58 57.1517 341.435 56.0684C341.289 54.985 341.028 54.0267 340.653 53.1934C340.278 52.36 339.747 51.7038 339.06 51.2246C338.372 50.7454 337.476 50.5059 336.372 50.5059C335.247 50.5059 334.299 50.6934 333.528 51.0684C332.778 51.4434 332.174 51.985 331.716 52.6934C331.278 53.3809 330.966 54.235 330.778 55.2559C330.591 56.2559 330.507 57.3913 330.528 58.6621V61.1309C330.487 62.86 330.643 64.3392 330.997 65.5684C331.351 66.7975 331.966 67.735 332.841 68.3809C333.716 69.0267 334.914 69.3496 336.435 69.3496C337.56 69.3496 338.466 69.1309 339.153 68.6934C339.862 68.2559 340.393 67.6309 340.747 66.8184C341.101 66.0059 341.341 65.0371 341.466 63.9121C341.591 62.7871 341.653 61.5475 341.653 60.1934Z" fill="#412CAB"/>
        <defs>
            <linearGradient id="paint0_linear_206_10" x1="20.1606" y1="22.7273" x2="116.342" y2="86.5455" gradientUnits="userSpaceOnUse">
                <stop stop-color="#15C7FF"/>
                <stop offset="1" stop-color="#00C2FF" stop-opacity="0"/>
            </linearGradient>
        </defs>
    </symbol>
</svg>